<svg 
 xmlns="http://www.w3.org/2000/svg"
 xmlns:xlink="http://www.w3.org/1999/xlink"
 width="16px" height="16px">
<path fill-rule="evenodd"  fill="rgb(255, 255, 255)"
 d="M12.418,0.797 L3.582,0.797 C2.047,0.797 0.798,2.045 0.798,3.581 L0.798,6.520 L0.798,12.417 C0.798,13.952 2.047,15.200 3.582,15.200 L12.418,15.200 C13.953,15.200 15.202,13.952 15.202,12.417 L15.202,6.520 L15.202,3.581 C15.202,2.045 13.953,0.797 12.418,0.797 ZM13.295,2.407 L13.610,2.406 L13.610,2.716 L13.610,4.797 L11.202,4.805 L11.193,2.414 L13.295,2.407 ZM8.000,5.589 C9.997,5.589 10.410,7.464 10.410,7.999 C10.410,9.326 9.328,10.409 8.000,10.409 C6.671,10.409 5.590,9.326 5.590,7.999 C5.590,7.464 6.002,5.589 8.000,5.589 ZM13.623,12.243 C13.623,13.004 13.004,13.622 12.243,13.622 L3.732,13.622 C2.970,13.622 2.351,13.004 2.351,12.243 L2.351,6.396 L4.351,6.396 C4.166,6.853 4.061,7.476 4.061,7.999 C4.061,10.170 5.828,11.938 8.000,11.938 C10.172,11.938 11.938,10.170 11.938,7.999 C11.938,7.476 11.833,6.853 11.648,6.396 L13.623,6.396 L13.623,12.243 Z"/>
</svg>