<svg 
 xmlns="http://www.w3.org/2000/svg"
 xmlns:xlink="http://www.w3.org/1999/xlink"
 width="16px" height="13px">
<path fill-rule="evenodd"  fill="rgb(255, 255, 255)"
 d="M16.002,1.822 C15.443,2.063 14.842,2.226 14.210,2.299 C14.854,1.924 15.349,1.332 15.582,0.624 C14.979,0.971 14.312,1.223 13.601,1.359 C13.032,0.770 12.222,0.403 11.324,0.403 C9.602,0.403 8.205,1.758 8.205,3.431 C8.205,3.667 8.233,3.898 8.286,4.120 C5.693,3.994 3.395,2.789 1.856,0.957 C1.588,1.404 1.434,1.924 1.434,2.478 C1.434,3.529 1.985,4.456 2.822,4.998 C2.311,4.982 1.829,4.847 1.409,4.620 C1.409,4.633 1.409,4.645 1.409,4.658 C1.409,6.125 2.484,7.348 3.911,7.627 C3.649,7.696 3.374,7.733 3.089,7.733 C2.888,7.733 2.692,7.714 2.502,7.678 C2.899,8.881 4.051,9.756 5.416,9.781 C4.348,10.593 3.003,11.078 1.542,11.078 C1.290,11.078 1.042,11.062 0.798,11.034 C2.179,11.894 3.818,12.395 5.579,12.395 C11.317,12.395 14.454,7.782 14.454,3.781 C14.454,3.651 14.452,3.518 14.446,3.390 C15.055,2.963 15.584,2.429 16.002,1.822 Z"/>
</svg>