<svg 
 xmlns="http://www.w3.org/2000/svg"
 xmlns:xlink="http://www.w3.org/1999/xlink"
 width="15px" height="13px">
<path fill-rule="evenodd"  fill="rgb(255, 255, 255)"
 d="M0.800,3.598 C1.997,2.643 3.698,0.545 5.026,0.545 C6.351,0.545 6.677,2.110 6.858,3.532 C7.040,4.951 7.562,8.058 8.262,8.058 C8.964,8.058 10.564,5.310 10.473,4.248 C10.382,3.187 9.225,3.346 8.588,3.651 C9.173,1.527 10.525,0.399 12.254,0.399 C13.983,0.399 14.400,1.620 14.400,3.120 C14.400,5.403 9.771,12.398 6.976,12.398 C5.246,12.398 4.817,9.850 4.467,8.589 C4.115,7.328 3.426,4.023 2.620,3.811 C2.307,3.758 1.424,4.460 1.424,4.460 L0.800,3.598 Z"/>
</svg>