<svg 
 xmlns="http://www.w3.org/2000/svg"
 xmlns:xlink="http://www.w3.org/1999/xlink"
 width="13px" height="12px">
<path fill-rule="evenodd"  fill="rgb(255, 255, 255)"
 d="M10.008,11.787 L10.008,7.431 C10.008,6.536 9.750,5.643 8.698,5.643 C7.647,5.643 6.807,6.536 6.807,7.452 L6.807,11.787 L4.402,11.787 L4.402,3.772 L6.807,3.772 L6.807,4.883 C7.546,3.946 8.587,3.521 9.750,3.521 C10.914,3.521 12.405,4.101 12.405,7.252 L12.405,11.787 L10.008,11.787 ZM0.412,3.796 L2.809,3.796 L2.809,11.787 L0.412,11.787 L0.412,3.796 ZM1.600,2.999 C0.937,2.999 0.400,2.462 0.400,1.799 C0.400,1.137 0.937,0.599 1.600,0.599 C2.263,0.599 2.800,1.137 2.800,1.799 C2.800,2.462 2.263,2.999 1.600,2.999 Z"/>
</svg>